<?xml version="1.0" encoding="UTF-8"?>
<svg id="Layer_1" xmlns="http://www.w3.org/2000/svg" viewBox="0 0 798 368">
  <defs>
    <style>
      .cls-1 {
        font-size: 23.19px;
      }

      .cls-1, .cls-2, .cls-3, .cls-4, .cls-5 {
        isolation: isolate;
      }

      .cls-1, .cls-3, .cls-4, .cls-6, .cls-5 {
        fill: #fff;
      }

      .cls-1, .cls-3, .cls-4, .cls-5 {
        font-family: Impact, Impact;
      }

      .cls-3 {
        font-size: 32.62px;
      }

      .cls-7 {
        fill: #ddd;
      }

      .cls-4, .cls-5 {
        font-size: 36.91px;
      }

      .cls-5 {
        letter-spacing: -.02em;
      }

      .cls-8 {
        fill: #ff5252;
      }
    </style>
  </defs>
  <g id="Layer_6">
    <g>
      <g>
        <path class="cls-8" d="M741.3,0h-173.3c0,21.54-17.46,39-39,39s-39-17.46-39-39H56.7C25.39,0,0,25.39,0,56.7v2.3h798v-2.3C798,25.39,772.61,0,741.3,0Z"/>
        <path class="cls-8" d="M0,311.3c0,31.31,25.39,56.7,56.7,56.7h433.3c0-21.54,17.46-39,39-39s39,17.46,39,39h173.3c31.31,0,56.7-25.39,56.7-56.7v-.3H0v.3Z"/>
      </g>
      <rect class="cls-7" y="59" width="798" height="252"/>
    </g>
  </g>
  <g id="Layer_8">
    <g>
      <g>
        <g>
          <rect class="cls-6" x="525" y="49" width="8" height="25"/>
          <rect class="cls-6" x="525" y="82" width="8" height="25"/>
        </g>
        <g>
          <rect class="cls-6" x="525" y="116" width="8" height="25"/>
          <rect class="cls-6" x="525" y="149" width="8" height="25"/>
        </g>
      </g>
      <g>
        <g>
          <rect class="cls-6" x="525" y="182" width="8" height="25"/>
          <rect class="cls-6" x="525" y="215" width="8" height="25"/>
        </g>
        <g>
          <rect class="cls-6" x="525" y="249" width="8" height="25"/>
          <rect class="cls-6" x="525" y="282" width="8" height="25"/>
        </g>
      </g>
    </g>
    <g class="cls-2">
      <text class="cls-4" transform="translate(59.45 44.16)"><tspan x="0" y="0">BOARDING </tspan></text>
      <text class="cls-5" transform="translate(216.48 44.16)"><tspan x="0" y="0">P</tspan></text>
      <text class="cls-4" transform="translate(234.09 44.16)"><tspan x="0" y="0">ASS</tspan></text>
    </g>
    <g class="cls-2">
      <text class="cls-1" transform="translate(604.56 44.33) scale(.97 1)"><tspan x="0" y="0">MINNIE AIRLINE</tspan></text>
    </g>
    <g class="cls-2">
      <text class="cls-3" transform="translate(63.3 354.21)"><tspan x="0" y="0">MINNIE AIRLINE</tspan></text>
    </g>
  </g>
  <g id="Layer_9">
    <g>
      <rect x="689" y="84" width="88" height="14.88"/>
      <rect x="689" y="104.19" width="88" height="5.31"/>
      <rect x="689" y="112.7" width="88" height="2.13"/>
      <rect x="689" y="124.39" width="88" height="9.57"/>
      <rect x="689" y="137.14" width="88" height="5.31"/>
      <rect x="689" y="148.83" width="88" height="2.13"/>
      <rect x="689" y="156.27" width="88" height="14.88"/>
      <rect x="689" y="176.47" width="88" height="7.44"/>
      <rect x="689" y="193.47" width="88" height="2.13"/>
      <rect x="689" y="196.66" width="88" height="5.31"/>
      <rect x="689" y="209.41" width="88" height="5.31"/>
      <rect x="689" y="222.17" width="88" height="11.69"/>
      <rect x="689" y="245.55" width="88" height="2.13"/>
      <rect x="689" y="251.93" width="88" height="5.31"/>
      <rect x="689" y="261.49" width="88" height="9.57"/>
      <rect x="689" y="276.37" width="88" height="4.25"/>
      <rect x="689" y="284.87" width="88" height="2.13"/>
    </g>
  </g>
  <g id="Layer_7">
    <rect class="cls-6" x="280.85" y="326" width="171.15" height="2"/>
    <rect class="cls-6" x="288" y="340" width="150" height="2"/>
    <rect class="cls-6" x="279" y="354" width="173" height="2"/>
    <path class="cls-6" d="M444.72,333.81c.47.02.93.03,1.38.07.1,0,.23.11.29.21.55.8,1.09,1.62,1.63,2.43.49.73.98,1.45,1.46,2.18.09.14.22.2.38.18,2.74-.35,5.49-.4,8.24-.52.55-.02,1.11-.04,1.66-.06h.18c0-.07-.01-.13-.02-.19-.31-3.25-.91-6.45-1.58-9.64-.56-2.68-1.12-5.37-1.68-8.05-.01-.06-.02-.11-.03-.18h.13c.82.01,1.63.03,2.45.04.2,0,.34.08.45.24.64.96,1.29,1.93,1.94,2.89.34.51.68,1.03,1.02,1.54.17.25.39.36.69.35.54-.02,1.08-.03,1.61-.03.34,0,.61.13.84.38.51.57.55,1.56.08,2.16-.15.2-.35.35-.6.43-.11.03-.22.07-.34.12.26.39.5.77.75,1.14.36.54.73,1.07,1.09,1.61.12.18.28.27.5.27.56-.01,1.13-.01,1.69-.02.61-.01.98.22,1.23.78.29.66.19,1.28-.23,1.85-.15.2-.36.31-.6.36-.12.03-.24.04-.37.06.01.03.02.06.03.08.79,1.19,1.58,2.38,2.37,3.57.13.19.3.24.51.25,1.52.06,3.05.11,4.57.2,2.71.16,5.4.5,8.03,1.2.65.17,1.23.46,1.77.86.57.42.56,1.1-.01,1.51-.48.35-1.02.57-1.58.75-1.49.47-3.03.71-4.59.79-2.68.13-5.35.23-8.03.32-.41.01-.7.16-.93.51-.68,1-1.38,1.98-2.07,2.97-.08.11-.15.23-.23.35.08.02.13.03.19.05.31.09.55.27.71.54.39.63.34,1.46-.11,2.04-.24.3-.56.44-.94.42-.55-.02-1.1-.04-1.64-.07-.21-.01-.36.06-.48.24-.6.87-1.21,1.73-1.82,2.59-.03.04-.06.09-.09.14.03.02.04.03.07.04.84.28,1.28,1.06,1.06,1.91-.06.24-.19.48-.33.69-.21.33-.55.44-.93.43-.54-.02-1.08-.04-1.61-.07-.26-.02-.43.08-.57.28-1.03,1.49-2.07,2.97-3.1,4.45-.16.23-.37.34-.65.33-.81-.02-1.61-.02-2.44-.03.01-.07.02-.13.03-.19.63-2.74,1.27-5.48,1.9-8.21.68-2.91,1.3-5.84,1.68-8.81.04-.3.07-.61.11-.92-.05,0-.09-.02-.13-.02-2.97-.24-5.93-.47-8.9-.71-.25-.02-.49-.07-.73-.12-.34-.07-.58,0-.81.32-.5.71-.99,1.43-1.49,2.14-.51.73-1.04,1.46-1.55,2.19-.09.13-.22.22-.38.22-.44.02-.87.02-1.33.03,0-.07.01-.13.02-.19.27-1.92.54-3.83.81-5.75.02-.16-.05-.26-.18-.34-.23-.14-.46-.27-.66-.43-.24-.18-.24-.31.02-.49.18-.12.36-.23.56-.33.27-.13.31-.19.28-.49-.07-.59-.14-1.18-.2-1.78-.15-1.29-.29-2.58-.43-3.87,0-.06,0-.11-.01-.2h0Z"/>
  </g>
</svg>